<?xml version="1.0" standalone="no"?><!DOCTYPE svg PUBLIC "-//W3C//DTD SVG 1.1//EN" "http://www.w3.org/Graphics/SVG/1.1/DTD/svg11.dtd"><svg t="1762519069083" class="icon" viewBox="0 0 1024 1024" version="1.1" xmlns="http://www.w3.org/2000/svg" p-id="5198" xmlns:xlink="http://www.w3.org/1999/xlink" width="256" height="256"><path d="M213.333333 401.066667V213.333333h187.733334v187.733334H213.333333zM209.664 128A81.664 81.664 0 0 0 128 209.664v195.029333c0 45.098667 36.565333 81.664 81.664 81.664h195.029333A81.664 81.664 0 0 0 486.4 404.693333v-194.986666A81.664 81.664 0 0 0 404.693333 128h-194.986666zM213.333333 810.581333V622.933333h187.733334V810.666667H213.333333zM209.664 537.6A81.664 81.664 0 0 0 128 619.221333v195.029334c0 45.098667 36.565333 81.664 81.664 81.664h195.029333a81.664 81.664 0 0 0 81.664-81.664v-194.986667a81.664 81.664 0 0 0-81.664-81.706667h-194.986666zM537.6 307.2a179.2 179.2 0 1 1 358.4 0 179.2 179.2 0 0 1-358.4 0zM716.757333 213.333333a93.866667 93.866667 0 1 0 0 187.733334 93.866667 93.866667 0 0 0 0-187.733334z m-93.866666 597.248V622.933333H810.666667V810.666667h-187.733334z m-3.669334-273.024a81.664 81.664 0 0 0-81.664 81.664v195.029334c0 45.098667 36.565333 81.664 81.664 81.664h195.029334a81.664 81.664 0 0 0 81.664-81.664v-194.986667a81.664 81.664 0 0 0-81.664-81.706667h-194.986667z" p-id="5199"></path></svg>