<?xml version="1.0" standalone="no"?><!DOCTYPE svg PUBLIC "-//W3C//DTD SVG 1.1//EN" "http://www.w3.org/Graphics/SVG/1.1/DTD/svg11.dtd"><svg t="1762519107607" class="icon" viewBox="0 0 1024 1024" version="1.1" xmlns="http://www.w3.org/2000/svg" p-id="5365" xmlns:xlink="http://www.w3.org/1999/xlink" width="256" height="256"><path d="M440.277333 878.208a85.333333 85.333333 0 0 0 142.72 1.109333l31.573334-47.317333H832A106.666667 106.666667 0 0 0 938.666667 725.333333V256a106.666667 106.666667 0 0 0-106.666667-106.666667h-640A106.666667 106.666667 0 0 0 85.333333 256v469.333333a106.666667 106.666667 0 0 0 106.666667 106.666667h218.453333l29.824 46.208z m23.04-121.770667a21.290667 21.290667 0 0 0-17.92-9.770666H192A21.333333 21.333333 0 0 1 170.666667 725.333333V256a21.333333 21.333333 0 0 1 21.333333-21.333333h640a21.333333 21.333333 0 0 1 21.333333 21.333333v469.333333a21.333333 21.333333 0 0 1-21.333333 21.333334h-251.733333a21.333333 21.333333 0 0 0-17.706667 9.514666L512 832l-48.682667-75.52zM384 458.666667a42.666667 42.666667 0 0 0-85.333333 0v64a42.666667 42.666667 0 0 0 85.333333 0v-64z m128-42.666667a42.666667 42.666667 0 0 1 42.666667 42.666667v64a42.666667 42.666667 0 1 1-85.333334 0v-64a42.666667 42.666667 0 0 1 42.666667-42.666667z m213.333333 42.666667a42.666667 42.666667 0 1 0-85.333333 0v64a42.666667 42.666667 0 1 0 85.333333 0v-64z" fill="#707070" p-id="5366"></path></svg>