<?xml version="1.0" standalone="no"?><!DOCTYPE svg PUBLIC "-//W3C//DTD SVG 1.1//EN" "http://www.w3.org/Graphics/SVG/1.1/DTD/svg11.dtd"><svg t="1762519139338" class="icon" viewBox="0 0 1024 1024" version="1.1" xmlns="http://www.w3.org/2000/svg" p-id="5597" xmlns:xlink="http://www.w3.org/1999/xlink" width="256" height="256"><path d="M870.4 349.866667c-8.533333-42.666667-42.666667-72.533333-85.333333-72.533334H640v-42.666666c0-85.333333-64-128-128-128s-128 42.666667-128 128v42.666666H238.933333c-42.666667 0-76.8 29.866667-85.333333 72.533334L128 866.133333c-4.266667 25.6 17.066667 51.2 42.666667 51.2h682.666666c25.6 0 46.933333-21.333333 42.666667-51.2l-25.6-516.266666zM469.333333 234.666667c0-29.866667 12.8-42.666667 42.666667-42.666667s42.666667 12.8 42.666667 42.666667v42.666666h-85.333334v-42.666666z m-247.466666 597.333333l17.066666-469.333333h550.4l17.066667 469.333333H221.866667z" p-id="5598"></path><path d="M341.333333 533.333333a64 64 0 1 0 128 0 64 64 0 1 0-128 0Z" p-id="5599"></path><path d="M554.666667 533.333333a64 64 0 1 0 128 0 64 64 0 1 0-128 0Z" p-id="5600"></path></svg>