<?xml version="1.0" standalone="no"?>
<!DOCTYPE svg PUBLIC "-//W3C//DTD SVG 1.1//EN" "http://www.w3.org/Graphics/SVG/1.1/DTD/svg11.dtd" >
<svg xmlns="http://www.w3.org/2000/svg">
<metadata>Generated by IcoMoon</metadata>
<defs>
<font id="icomoon" horiz-adv-x="1024">
<font-face units-per-em="1024" ascent="960" descent="-64" />
<missing-glyph horiz-adv-x="1024" />
<glyph unicode="&#x20;" horiz-adv-x="512" d="" />
<glyph unicode="&#xe900;" glyph-name="messages-unread" d="M810.667 789.333h-597.333c-72.533 0-128-55.467-128-128v-426.667c0-72.533 55.467-128 128-128h597.333c72.533 0 128 55.467 128 128v426.667c0 72.533-55.467 128-128 128zM785.067 704l-243.2-243.2c-17.067-17.067-42.667-17.067-59.733 0l-243.2 243.2h546.133zM170.667 260.267v392.533l196.267-196.267-196.267-196.267zM221.867 192l204.8 204.8c46.933-42.667 123.733-42.667 170.667 0l204.8-204.8h-580.267zM853.333 260.267l-196.267 196.267 196.267 196.267v-392.533z" />
<glyph unicode="&#xe901;" glyph-name="settings-black" d="M968.533 469.333l-209.067 362.667c-8.533 12.8-21.333 21.333-38.4 21.333h-418.133c-17.067 0-29.867-8.533-38.4-21.333l-209.067-362.667c-8.533-12.8-8.533-29.867 0-42.667l209.067-362.667c8.533-12.8 21.333-21.333 38.4-21.333h418.133c17.067 0 29.867 8.533 38.4 21.333l209.067 362.667c8.533 12.8 8.533 29.867 0 42.667zM870.4 426.667l-162.133-277.333c-8.533-12.8-21.333-21.333-38.4-21.333h-320c-17.067 0-29.867 8.533-38.4 21.333l-162.133 277.333c-8.533 12.8-8.533 29.867 0 42.667l166.4 277.333c8.533 12.8 21.333 21.333 38.4 21.333h320c17.067 0 29.867-8.533 38.4-21.333l162.133-277.333c4.267-12.8 4.267-29.867-4.267-42.667zM512 618.667c-93.867 0-170.667-76.8-170.667-170.667s76.8-170.667 170.667-170.667 170.667 76.8 170.667 170.667-76.8 170.667-170.667 170.667zM512 362.667c-46.933 0-85.333 38.4-85.333 85.333s38.4 85.333 85.333 85.333 85.333-38.4 85.333-85.333-38.4-85.333-85.333-85.333z" />
<glyph unicode="&#xe902;" glyph-name="history-black" d="M512 32c-229.75 0-416 186.25-416 416s186.25 416 416 416c229.75 0 416-186.25 416-416v0c0-229.75-186.25-416-416-416v0zM512 800c-194.404 0-352-157.596-352-352s157.596-352 352-352c194.404 0 352 157.596 352 352v0c0 194.404-157.596 352-352 352v0zM704 352h-192c-17.673 0-32 14.327-32 32v0 256c0 17.673 14.327 32 32 32s32-14.327 32-32v0-224h160c17.673 0 32-14.327 32-32s-14.327-32-32-32v0z" />
<glyph unicode="&#xe903;" glyph-name="favorites-black" d="M909.909 593.963l-227.371 51.456-120.107 197.12c-25.728 42.837-81.493 42.837-107.221 0l-115.84-197.12-223.019-51.499c-51.499-12.8-68.651-64.256-34.347-102.827l154.453-171.392-21.461-231.424c-4.267-51.413 38.613-81.408 85.76-59.989l214.485 90.027 180.181-77.184c30.037-12.843 55.765-12.843 72.917 0 4.267 4.267 8.576 4.267 12.885 8.576 17.152 17.152 25.728 42.88 25.728 72.832l-17.152 197.12 154.411 175.701c30.037 34.304 17.152 85.76-34.304 98.56zM695.424 349.739l21.461-222.848-205.909 90.027-205.909-90.027 21.461 222.848-145.835 167.125 218.752 51.413 115.797 192.853 115.84-192.853 218.752-51.413-154.453-167.125z" />
<glyph unicode="&#xe904;" glyph-name="right-black" d="M414.293 734.165c-7.74 7.745-18.436 12.536-30.251 12.536-23.619 0-42.766-19.147-42.766-42.766 0-11.804 4.782-22.491 12.515-30.23l225.749-225.706-225.707-225.707c-7.74-7.735-12.528-18.423-12.528-30.229 0-23.602 19.133-42.736 42.736-42.736 11.796 0 22.475 4.779 30.208 12.507l254.165 254.165c8.812 7.837 14.336 19.206 14.336 31.865 0 0.047 0 0.095 0 0.142v-0.007c0 0.040 0 0.087 0 0.135 0 12.659-5.524 24.028-14.293 31.827l-0.043 0.038-254.123 254.165z" />
<glyph unicode="&#xe905;" glyph-name="about-black" d="M511.915 874.667c-235.52 0-426.667-191.147-426.667-426.667s191.147-426.667 426.667-426.667 426.667 191.147 426.667 426.667-191.147 426.667-426.667 426.667zM511.915 106.667c-188.587 0-341.333 152.747-341.333 341.333s152.747 341.333 341.333 341.333 341.333-152.747 341.333-341.333-152.747-341.333-341.333-341.333zM507.648 278.187q3.413-2.987 5.547-2.987c3.84 0 7.253 1.707 9.813 4.693 8.96 7.68 20.053 20.907 32.427 40.533l10.667-5.973c-30.293-52.907-62.72-79.36-96.853-79.36-13.227 0-23.467 3.84-31.147 11.093-7.109 6.666-11.538 16.117-11.538 26.602 0 0.398 0.006 0.794 0.019 1.189l-0.001-0.058c0 7.68 1.707 16.64 5.12 28.587l41.813 144.213c4.267 13.653 5.973 23.893 5.973 31.147v2.987c0 0.853-0.427 2.133-0.853 2.987-1.081 2.407-2.677 4.414-4.658 5.947l-0.035 0.026c-3.841 3.202-8.829 5.147-14.27 5.147-0.383 0-0.764-0.010-1.143-0.029l0.053 0.002h-11.093l3.84 11.947 102.4 16.64h17.92l-61.867-214.187c-1.707-6.4-2.987-11.947-3.84-16.213-0.853-3.413-0.853-6.4-0.853-8.107 0-2.133 1.28-4.267 2.987-5.973l-0.427-0.853zM533.248 576c23.467 0 42.667 19.2 42.667 42.667s-19.2 42.667-42.667 42.667-42.667-19.2-42.667-42.667 19.2-42.667 42.667-42.667z" />
<glyph unicode="&#xe906;" glyph-name="logout-black" d="M170.752 832q-4.224 0-8.32-0.853-4.139-0.768-8.021-2.389-3.84-1.621-7.381-3.968-3.499-2.304-6.443-5.291-2.987-2.987-5.333-6.443-2.304-3.499-3.925-7.381t-2.432-8.021q-0.853-4.139-0.853-8.32v-682.667q0-4.224 0.853-8.32 0.853-4.139 2.432-8.021 1.621-3.84 3.925-7.381 2.347-3.456 5.333-6.443t6.443-5.291q3.499-2.347 7.381-3.968t8.021-2.432q4.096-0.811 8.32-0.811h384q4.181 0 8.32 0.853 4.096 0.768 7.979 2.389t7.381 3.968q3.499 2.304 6.485 5.291t5.291 6.443q2.347 3.499 3.968 7.381 1.579 3.883 2.432 8.021 0.811 4.096 0.811 8.32t-0.853 8.32q-0.811 4.139-2.389 8.021-1.621 3.84-3.968 7.381-2.347 3.456-5.291 6.443-2.987 2.987-6.485 5.291-3.499 2.347-7.381 3.968-3.84 1.621-7.979 2.432t-8.32 0.811h-341.333v597.333h341.333q4.181 0 8.32 0.853 4.096 0.768 7.979 2.389t7.381 3.968q3.499 2.304 6.485 5.291t5.291 6.443q2.347 3.499 3.968 7.381 1.579 3.883 2.432 8.021 0.811 4.139 0.811 8.32t-0.853 8.32q-0.811 4.139-2.389 8.021-1.621 3.84-3.968 7.381-2.347 3.456-5.291 6.443-2.987 2.987-6.485 5.291-3.499 2.347-7.381 3.968-3.84 1.621-7.979 2.432t-8.32 0.811h-384zM683.819 677.845q-2.987 2.987-6.443 5.291-3.499 2.347-7.381 3.968-3.883 1.579-8.021 2.432-4.096 0.811-8.32 0.811-4.181 0-8.32-0.853-4.096-0.811-7.979-2.389-3.883-1.621-7.381-3.968t-6.485-5.291q-2.987-2.987-5.291-6.485-2.347-3.499-3.968-7.381-1.579-3.84-2.432-7.979-0.811-4.139-0.811-8.32 0-4.224 0.853-8.32 0.811-4.139 2.389-8.021 1.621-3.883 3.968-7.381 2.304-3.499 5.291-6.443l126.848-126.848h-371.456q-4.181 0-8.32-0.853-4.096-0.768-7.979-2.389t-7.381-3.968q-3.499-2.304-6.485-5.291t-5.291-6.443q-2.347-3.499-3.968-7.381-1.579-3.883-2.432-8.021-0.811-4.139-0.811-8.32t0.853-8.32q0.811-4.139 2.389-8.021 1.621-3.84 3.968-7.381 2.304-3.456 5.291-6.443t6.485-5.291q3.499-2.347 7.381-3.968 3.84-1.621 7.979-2.432t8.32-0.811h371.797l-126.848-126.805q-5.973-6.016-9.259-13.867-3.243-7.851-3.243-16.341t3.243-16.299q3.285-7.851 9.259-13.867 2.987-2.987 6.485-5.291 3.499-2.347 7.381-3.968 3.84-1.579 7.979-2.389 4.139-0.853 8.32-0.853 4.224 0 8.363 0.853 4.096 0.811 7.979 2.389 3.883 1.621 7.381 3.968t6.485 5.291l199.253 199.253q5.973 5.973 9.173 13.781 3.285 7.808 3.285 16.256v0.64q0 8.491-3.243 16.299-3.243 7.851-9.259 13.867l-199.595 199.595z" />
<glyph unicode="&#xe907;" glyph-name="search-white" d="M930.133 98.133l-145.067 145.067c55.467 68.267 85.333 149.333 89.6 243.2 4.267 217.6-170.667 392.533-388.267 392.533s-396.8-179.2-401.067-396.8 170.667-392.533 388.267-392.533c89.6 0 174.933 29.867 243.2 81.067l149.333-149.333c8.533-8.533 25.6-8.533 34.133 0l34.133 34.133c8.533 17.067 8.533 34.133-4.267 42.667zM473.6 187.733c-162.133 0-294.4 132.267-290.133 294.4s136.533 294.4 302.933 294.4c162.133 0 294.4-132.267 290.133-294.4s-136.533-294.4-302.933-294.4z" />
<glyph unicode="&#xe908;" glyph-name="add-white" d="M554.667 789.333c0 0.002 0 0.004 0 0.007 0 23.564-19.103 42.667-42.667 42.667s-42.667-19.103-42.667-42.667c0-0.002 0-0.005 0-0.007v0-298.667h-298.667c-23.564 0-42.667-19.103-42.667-42.667s19.103-42.667 42.667-42.667v0h298.667v-298.667c0-0.002 0-0.004 0-0.007 0-23.564 19.103-42.667 42.667-42.667s42.667 19.103 42.667 42.667c0 0.002 0 0.005 0 0.007v0 298.667h298.667c23.564 0 42.667 19.103 42.667 42.667s-19.103 42.667-42.667 42.667h-298.667v298.667z" />
<glyph unicode="&#xe909;" glyph-name="stared" d="M512.010 934.945l158.199-320.581 353.791-51.421-256.005-249.522 60.432-352.365-316.418 166.355-316.437-166.355 60.432 352.365-256.005 249.522 353.791 51.421z" />
<glyph unicode="&#xe90a;" glyph-name="like-false" d="M862.933 607.403c-19.546 20.025-46.807 32.445-76.969 32.445-0.691 0-1.38-0.007-2.067-0.019l0.103 0.002h-201.301l26.453 102.4c4.693 18.347 3.84 36.693-2.56 54.571-6.4 17.92-17.067 32.853-32.427 43.947l-29.44 22.187c-11.947 8.96-25.173 12.8-40.107 11.52s-27.733-6.827-37.973-17.493l-1.28-1.28-188.032-219.691c-5.12-5.12-9.387-10.667-12.373-17.067h-62.293c-21.333 0-39.68-8.107-54.187-24.747-13.653-14.933-20.437-32.853-20.437-53.76v-355.285c0-20.907 6.827-38.827 20.48-53.76 14.933-16.213 32.853-24.704 54.187-24.704h505.856c15.787 0 29.867 4.267 43.093 12.8s22.613 20.053 28.587 34.56l107.435 258.475c5.547 13.653 8.533 27.733 8.533 42.667v72.491c0 30.72-11.093 57.173-32.853 78.933l-0.427 0.853zM255.957 192.853h-42.624v341.205h42.667v-341.248zM810.453 456.021c0-3.413-0.853-6.827-2.133-9.813l-105.387-253.355h-361.643v386.859l171.093 200.875 10.667-7.68q2.56-2.56 2.987-4.267c0.427-1.707 0.853-3.413 0-5.12l-53.76-208.981h311.339c7.253 0 13.653-2.56 18.773-7.68s7.68-11.093 7.68-18.347v-72.533h0.427z" />
<glyph unicode="&#xe90b;" glyph-name="like-true" d="M862.933 607.403c-19.546 20.025-46.807 32.445-76.969 32.445-0.691 0-1.38-0.007-2.067-0.019l0.103 0.002h-201.301l26.453 102.4c4.693 18.347 3.84 36.693-2.56 54.571-6.4 17.92-17.067 32.853-32.427 43.947l-29.44 22.187c-11.947 8.96-25.173 12.8-40.107 11.52s-27.733-6.827-37.973-17.493l-1.28-1.28-188.032-219.691c-5.12-5.12-9.387-10.667-12.373-17.067h-62.293c-21.333 0-39.68-8.107-54.187-24.747-13.653-14.933-20.437-32.853-20.437-53.76v-355.285c0-20.907 6.827-38.827 20.48-53.76 14.933-16.213 32.853-24.704 54.187-24.704h505.856c15.787 0 29.867 4.267 43.093 12.8s22.613 20.053 28.587 34.56l107.435 258.475c5.547 13.653 8.533 27.733 8.533 42.667v72.491c0 30.72-11.093 57.173-32.853 78.933l-0.427 0.853zM255.957 192.853h-42.624v341.205h42.667v-341.248zM810.453 456.021c0-3.413-0.853-6.827-2.133-9.813l-105.387-253.355h-361.643v386.859l171.093 200.875 10.667-7.68q2.56-2.56 2.987-4.267c0.427-1.707 0.853-3.413 0-5.12l-53.76-208.981h311.339c7.253 0 13.653-2.56 18.773-7.68s7.68-11.093 7.68-18.347v-72.533h0.427z" />
<glyph unicode="&#xe90c;" glyph-name="dislike-false" d="M161.28 288.597c21.76-21.76 48.213-32.427 78.933-32.427h201.301l-26.453-102.4c-4.693-18.347-3.84-36.693 2.56-54.571 6.4-17.92 17.067-32.853 32.427-43.947l29.44-22.187c11.947-8.96 25.173-12.8 40.107-11.52 14.891 1.28 27.691 6.827 37.931 17.493l1.28 1.28 188.075 219.691c5.12 5.12 9.387 10.667 12.373 17.067h62.293c21.333 0 39.68 8.107 54.187 24.747 13.653 14.933 20.48 32.853 20.48 53.76v355.243c0 20.907-6.827 38.827-20.48 53.76-14.933 16.213-32.853 24.704-54.187 24.704h-505.856c-15.787 0-29.867-4.267-43.093-12.8s-22.613-20.053-28.587-34.56l-107.477-258.432c-5.547-13.653-8.533-27.733-8.533-42.667v-72.491c0-30.72 11.093-57.173 32.853-78.933l0.427-0.853zM768.213 703.147h42.667v-341.248h-42.667v341.291zM213.76 440.021c0 3.413 0.853 6.827 2.133 9.813l105.387 253.312h361.685v-386.901l-171.051-200.875-10.667 7.68q-2.56 2.56-2.987 4.267c-0.427 1.707-0.853 3.413 0 5.12l53.76 208.981h-311.424c-7.253 0-13.653 2.56-18.773 7.68-4.738 4.53-7.683 10.901-7.683 17.959 0 0.136 0.001 0.272 0.003 0.408v-0.020 72.533h-0.427z" />
<glyph unicode="&#xe90d;" glyph-name="dislike-true" d="M161.28 288.597c21.76-21.76 48.213-32.427 78.933-32.427h201.301l-26.453-102.4c-4.693-18.347-3.84-36.693 2.56-54.571 6.4-17.92 17.067-32.853 32.427-43.947l29.44-22.187c11.947-8.96 25.173-12.8 40.107-11.52 14.891 1.28 27.691 6.827 37.931 17.493l1.28 1.28 188.075 219.691c5.12 5.12 9.387 10.667 12.373 17.067h62.293c21.333 0 39.68 8.107 54.187 24.747 13.653 14.933 20.48 32.853 20.48 53.76v355.243c0 20.907-6.827 38.827-20.48 53.76-14.933 16.213-32.853 24.704-54.187 24.704h-505.856c-15.787 0-29.867-4.267-43.093-12.8s-22.613-20.053-28.587-34.56l-107.477-258.432c-5.547-13.653-8.533-27.733-8.533-42.667v-72.491c0-30.72 11.093-57.173 32.853-78.933l0.427-0.853zM768.213 703.147h42.667v-341.248h-42.667v341.291zM213.76 440.021c0 3.413 0.853 6.827 2.133 9.813l105.387 253.312h361.685v-386.901l-171.051-200.875-10.667 7.68q-2.56 2.56-2.987 4.267c-0.427 1.707-0.853 3.413 0 5.12l53.76 208.981h-311.424c-7.253 0-13.653 2.56-18.773 7.68-4.738 4.53-7.683 10.901-7.683 17.959 0 0.136 0.001 0.272 0.003 0.408v-0.020 72.533h-0.427z" />
<glyph unicode="&#xe90e;" glyph-name="favorites-black1" d="M909.909 593.963l-227.371 51.456-120.107 197.12c-25.728 42.837-81.493 42.837-107.221 0l-115.84-197.12-223.019-51.499c-51.499-12.8-68.651-64.256-34.347-102.827l154.453-171.392-21.461-231.424c-4.267-51.413 38.613-81.408 85.76-59.989l214.485 90.027 180.181-77.184c30.037-12.843 55.765-12.843 72.917 0 4.267 4.267 8.576 4.267 12.885 8.576 17.152 17.152 25.728 42.88 25.728 72.832l-17.152 197.12 154.411 175.701c30.037 34.304 17.152 85.76-34.304 98.56zM695.424 349.739l21.461-222.848-205.909 90.027-205.909-90.027 21.461 222.848-145.835 167.125 218.752 51.413 115.797 192.853 115.84-192.853 218.752-51.413-154.453-167.125z" />
<glyph unicode="&#xe90f;" glyph-name="copy-black" d="M768 832h-341.333c-72.533 0-128-55.467-128-128v-42.667h-42.667c-72.533 0-128-55.467-128-128v-341.333c0-72.533 55.467-128 128-128h341.333c72.533 0 128 55.467 128 128v42.667h42.667c72.533 0 128 55.467 128 128v341.333c0 72.533-55.467 128-128 128zM640 192c0-25.6-17.067-42.667-42.667-42.667h-341.333c-25.6 0-42.667 17.067-42.667 42.667v341.333c0 25.6 17.067 42.667 42.667 42.667h341.333c25.6 0 42.667-17.067 42.667-42.667v-341.333zM810.667 362.667c0-25.6-17.067-42.667-42.667-42.667h-42.667v213.333c0 72.533-55.467 128-128 128h-213.333v42.667c0 25.6 17.067 42.667 42.667 42.667h341.333c25.6 0 42.667-17.067 42.667-42.667v-341.333z" />
<glyph unicode="&#xe910;" glyph-name="share-black" d="M746.667 320.299c-39.253 0-74.667-14.933-101.547-39.68l-222.72 131.755c2.987 11.52 4.267 23.467 4.267 36.267 0 13.653-1.707 27.307-5.547 40.107l218.88 132.608c27.13-27.561 64.84-44.637 106.539-44.637 82.428 0 149.271 66.726 149.461 149.11v0.018c-0.121 82.409-66.918 149.175-149.326 149.248h-0.007c-82.347 0-149.333-66.987-149.333-149.248 0-9.813 0.853-19.627 2.987-29.013l-224.427-136.021c-26.147 22.973-60.653 36.99-98.432 36.99-82.44 0-149.29-66.745-149.461-149.144v-0.016c0.1-82.47 66.978-149.286 149.461-149.286 39.192 0 74.86 15.085 101.516 39.765l-0.098-0.089 222.72-131.755c-2.987-11.52-4.267-23.467-4.267-36.267 0.121-82.409 66.918-149.175 149.326-149.248h0.007c82.347 0 149.333 66.987 149.333 149.248 0 82.347-66.987 149.291-149.333 149.291zM746.667 789.333c35.413 0 64-28.587 64-64 0-35.371-28.587-63.915-64-63.915s-64 28.629-64 64c0 35.413 28.587 63.915 64 63.915zM277.333 384.213c-35.413 0-64 28.587-64 63.957 0 35.413 28.587 64 64 64s64-28.587 64-64-28.587-64-64-64zM746.667 107.008c-35.413 0-64 28.587-64 64 0 35.371 28.587 63.915 64 63.915s64-28.587 64-63.957c0-35.413-28.587-63.957-64-63.957z" />
<glyph unicode="&#xe911;" glyph-name="left-black" d="M609.835 734.165c7.736 7.736 18.424 12.521 30.229 12.521 23.611 0 42.751-19.14 42.751-42.751 0-11.805-4.785-22.493-12.521-30.229l-225.707-225.707 225.707-225.707c7.74-7.735 12.528-18.423 12.528-30.229 0-23.602-19.133-42.736-42.736-42.736-11.796 0-22.475 4.779-30.208 12.507l-254.208 254.165c-8.812 7.837-14.336 19.206-14.336 31.865 0 0.047 0 0.095 0 0.142v-0.007c0 0.040 0 0.087 0 0.135 0 12.659 5.524 24.028 14.293 31.827l0.043 0.038 254.165 254.165z" />
<glyph unicode="&#xe912;" glyph-name="liked" d="M512 34h-6c-6 0-12 3-15 9l-348 348c-51 51-81 120-81 195s30 144 81 195c51 51 120 81 195 81 63 0 126-21 174-63 108 90 270 81 369-18 108-108 108-282 0-390l-348-348c-6-6-12-9-21-9z" />
<glyph unicode="&#xe913;" glyph-name="like" d="M797.184 441.504l-284.384-294.016-284.16 292c-22.812 27.795-36.64 63.722-36.64 102.878 0 0.012 0 0.024 0 0.035v-0.002c0 89.088 71.808 161.6 160 161.6 55.53-0.038 104.411-28.472 132.911-71.566l0.369-0.594 26.72-40.48 26.72 40.48c28.885 43.671 77.756 72.097 133.27 72.16h0.010c88.224 0 160-72.512 160-161.6 0-37.536-12.992-74.080-34.816-100.896zM672 768c-0.022 0-0.047 0-0.073 0-62.726 0-119.395-25.93-159.873-67.656l-0.054-0.056c-40.518 41.781-97.174 67.712-159.887 67.712-0.040 0-0.080 0-0.12 0h0.006c-123.52 0-224-101.216-224-225.6 0-52.288 18.176-103.232 52.96-145.536l285.952-293.984c11.372-11.823 27.327-19.168 44.997-19.168 0.032 0 0.064 0 0.096 0h-0.005c17.12 0 33.12 6.816 45.12 19.136l287.744 296.064c31.836 38.751 51.136 88.854 51.136 143.464 0 0.008 0 0.016 0 0.025v-0.001c0 124.384-100.48 225.6-224 225.6z" />
<glyph unicode="&#xe914;" glyph-name="messages-read" d="M896 516.267c0 25.6-12.8 51.2-34.133 68.267l-294.4 230.4c-29.867 25.6-72.533 25.6-106.667 0l-298.667-234.667c-21.333-12.8-34.133-38.4-34.133-64v-324.267c0-72.533 55.467-128 128-128h512c72.533 0 128 55.467 128 128v324.267zM768 149.333h-512c-29.867 0-42.667 12.8-42.667 42.667v320l298.667 234.667 294.4-230.4v-324.267c4.267-29.867-8.533-42.667-38.4-42.667zM281.6 499.2c12.8 17.067 42.667 21.333 59.733 4.267l170.667-140.8 170.667 140.8c17.067 12.8 46.933 12.8 59.733-4.267s12.8-46.933-4.267-59.733l-200.533-162.133c-8.533-8.533-17.067-8.533-25.6-8.533s-21.333 4.267-25.6 8.533l-200.533 162.133c-17.067 17.067-21.333 42.667-4.267 59.733z" />
<glyph unicode="&#xe915;" glyph-name="report" d="M508.587 311.040c-16.259 0-29.44-13.181-29.44-29.44s13.181-29.44 29.44-29.44c16.259 0 29.44 13.181 29.44 29.44v0c0 16.259-13.181 29.44-29.44 29.44v0zM508.587 643.84c-0.006 0-0.014 0-0.022 0-20.736 0-37.547-16.81-37.547-37.547 0-0.45 0.008-0.898 0.024-1.345l-0.002 0.065 8.107-215.893c0-16.259 13.181-29.44 29.44-29.44s29.44 13.181 29.44 29.44v0l8.107 215.893c0.025 0.51 0.039 1.108 0.039 1.71 0 20.501-16.619 37.12-37.12 37.12-0.164 0-0.327-0.001-0.491-0.003h0.025zM929.28 641.28l-224 224c-5.786 5.793-13.78 9.379-22.612 9.387h-341.335c-8.833-0.008-16.828-3.594-22.613-9.386v0l-224-224c-5.793-5.786-9.379-13.78-9.387-22.612v-341.335c0.008-8.833 3.594-16.828 9.386-22.613v0l224-224c5.786-5.793 13.78-9.379 22.612-9.387h341.335c8.833 0.008 16.828 3.594 22.613 9.386v0l224 224c5.793 5.786 9.379 13.78 9.387 22.612v341.335c-0.008 8.833-3.594 16.828-9.386 22.613v0zM874.667 290.56l-205.227-205.227h-314.88l-205.227 205.227v314.88l205.227 205.227h314.88l205.227-205.227z" />
<glyph unicode="&#xe916;" glyph-name="message_light" d="M341.333 554.667h341.333c12.8 0 21.333 8.533 21.333 21.333s-8.533 21.333-21.333 21.333h-341.333c-12.8 0-21.333-8.533-21.333-21.333s10.667-21.333 21.333-21.333zM341.333 426.667h256c12.8 0 21.333 8.533 21.333 21.333s-8.533 21.333-21.333 21.333h-256c-12.8 0-21.333-8.533-21.333-21.333s10.667-21.333 21.333-21.333zM957.867 512c0 211.2-200.533 381.867-445.867 381.867-247.467 0-448-170.667-448-381.867 0-108.8 66.133-217.6 181.333-294.4 10.667-6.4 23.467-4.267 29.867 6.4s4.267 23.467-6.4 29.867c-59.733 40.533-162.133 128-162.133 258.133 0 187.733 181.333 339.2 405.333 339.2 221.867 0 403.2-151.467 403.2-339.2s-181.333-339.2-403.2-339.2c-2.133 0-4.267 0-6.4-2.133-10.667 4.267-21.333-2.133-25.6-12.8-8.533-25.6-70.4-66.133-125.867-96 23.467 76.8 12.8 89.6 8.533 96s-12.8 10.667-21.333 10.667c-12.8 0-21.333-8.533-21.333-21.333 0-6.4 2.133-10.667 6.4-14.933 0-17.067-14.933-66.133-27.733-104.533-2.133-8.533 0-17.067 6.4-23.467 4.267-4.267 8.533-6.4 14.933-6.4 2.133 0 6.4 0 8.533 2.133 25.6 10.667 151.467 68.267 185.6 128 245.333 2.133 443.733 172.8 443.733 384z" />
<glyph unicode="&#xe917;" glyph-name="goods_light" d="M896 618.667c0 10.667-10.667 21.333-21.333 21.333h-128v8.533c0 123.733-100.267 226.133-226.133 226.133h-17.067c-123.733 0-226.133-102.4-226.133-226.133v-8.533h-128c-10.667 0-21.333-8.533-21.333-21.333l-19.2-518.4v-2.133c4.267-55.467 51.2-98.133 106.667-98.133h595.2c55.467 0 102.4 42.667 106.667 98.133v2.133l-21.333 518.4zM810.667 40.533h-595.2c-32 0-59.733 25.6-64 57.6l19.2 499.2h106.667v-113.067c-12.8-6.4-21.333-21.333-21.333-36.267 0-23.467 19.2-42.667 42.667-42.667s42.667 19.2 42.667 42.667c0 14.933-8.533 29.867-21.333 36.267v164.267c0 100.267 83.2 183.467 183.467 183.467h17.067c100.267 0 183.467-83.2 183.467-183.467v-164.267c-12.8-8.533-21.333-21.333-21.333-36.267 0-23.467 19.2-42.667 42.667-42.667s42.667 19.2 42.667 42.667c0 14.933-8.533 29.867-21.333 36.267v113.067h106.667l21.333-497.067c-4.267-34.133-32-59.733-64-59.733zM640 640h-256c-12.8 0-21.333-8.533-21.333-21.333s8.533-21.333 21.333-21.333h256c12.8 0 21.333 8.533 21.333 21.333s-8.533 21.333-21.333 21.333z" />
<glyph unicode="&#xe918;" glyph-name="postcard" d="M160 736c-0.345 0.014-0.751 0.022-1.158 0.022-8.531 0-16.26-3.429-21.885-8.985l0.003 0.003c-5.552-5.622-8.982-13.351-8.982-21.882 0-0.407 0.008-0.813 0.023-1.216l-0.002 0.058v-512c0-9.344 2.987-17.024 8.96-23.040 6.016-5.973 13.696-8.96 23.040-8.96h704c0.345-0.014 0.751-0.022 1.158-0.022 8.531 0 16.26 3.429 21.885 8.985l-0.003-0.003c5.552 5.622 8.982 13.351 8.982 21.882 0 0.407-0.008 0.813-0.023 1.216l0.002-0.058v512c0.014 0.345 0.022 0.751 0.022 1.158 0 8.531-3.429 16.26-8.985 21.885l0.003-0.003c-5.622 5.552-13.351 8.982-21.882 8.982-0.407 0-0.813-0.008-1.216-0.023l0.058 0.002h-704zM160 800h704c27.307-0.64 50.005-9.984 68.011-27.989s27.307-40.704 27.989-68.011v-512c-0.64-27.307-9.984-50.005-27.989-68.011s-40.704-27.307-68.011-27.989h-704c-27.307 0.64-50.005 9.984-68.011 27.989s-27.307 40.704-27.989 68.011v512c0.683 27.307 9.984 50.005 27.989 68.011s40.704 27.307 68.011 27.989zM704 640c18.005-0.683 32.981-6.997 45.013-19.029 11.947-11.989 17.963-27.008 18.005-44.971 0-17.963-5.973-32.981-18.005-45.013-11.070-11.136-26.398-18.028-43.336-18.028-0.59 0-1.178 0.008-1.764 0.025l0.086-0.002c-17.963 0-32.981 6.016-45.013 18.005-11.136 11.037-18.031 26.338-18.031 43.25 0 0.62 0.009 1.238 0.028 1.854l-0.002-0.090c0 17.963 6.059 32.981 18.005 44.971 11.989 12.032 27.008 18.347 45.013 19.029zM288 512h256c21.333 0 32-10.667 32-32s-10.667-32-32-32h-256c-21.333 0-32 10.667-32 32s10.667 32 32 32zM288 384h256c21.333 0 32-10.667 32-32s-10.667-32-32-32h-256c-21.333 0-32 10.667-32 32s10.667 32 32 32z" />
<glyph unicode="&#xe919;" glyph-name="more" d="M445.21 960h-395.981c-27.023 0-49.004-21.975-49.004-48.988v-395.991c0-27.013 21.98-48.988 48.998-48.988h395.981c27.013 0 48.993 21.975 48.993 48.988v395.986c0.005 27.023-21.98 48.993-48.988 48.993zM428.877 531.354h-363.32v363.325h363.32v-363.325zM974.771 960h-395.981c-27.018 0-48.993-21.975-48.993-48.988v-395.991c0-27.013 21.975-48.988 48.993-48.988h395.981c27.018 0 48.993 21.975 48.993 48.988v395.986c0 27.018-21.975 48.993-48.993 48.993zM958.438 531.354h-363.32v363.325h363.325v-363.325zM445.21 429.967h-395.981c-27.018 0-48.998-21.975-48.998-48.993v-395.981c0-27.018 21.98-48.993 48.998-48.993h395.981c27.013 0 48.993 21.98 48.993 48.993v395.981c0 27.018-21.98 48.993-48.993 48.993zM428.877 1.321h-363.32v363.325h363.32v-363.325zM974.771 429.967h-395.981c-27.018 0-48.993-21.975-48.993-48.993v-395.981c0-27.018 21.975-48.993 48.993-48.993h395.981c27.018 0 48.993 21.98 48.993 48.993v395.981c0 27.018-21.975 48.993-48.993 48.993zM958.438 1.321h-363.32v363.325h363.325v-363.325z" />
<glyph unicode="&#xe91a;" glyph-name="manage" d="M512 256c-105.6 0-192 86.4-192 192s86.4 192 192 192 192-86.4 192-192-86.4-192-192-192zM512 576c-70.4 0-128-57.6-128-128s57.6-128 128-128 128 57.6 128 128-57.6 128-128 128zM587.2 0h-148.8c-46.4 0-84.8 38.4-84.8 84.8 0 8-4.8 16-12.8 19.2-12.8 6.4-25.6 14.4-38.4 22.4-8 4.8-16 4.8-22.4 1.6-41.6-24-92.8-9.6-116.8 32l-76.8 128c-11.2 19.2-14.4 43.2-8 65.6s20.8 40 40 51.2c6.4 4.8 11.2 12.8 11.2 20.8v44.8c0 8-3.2 16-11.2 20.8-41.6 24-54.4 75.2-32 116.8l75.2 129.6c24 41.6 75.2 54.4 116.8 32 6.4-3.2 16-3.2 22.4 1.6 12.8 8 25.6 16 38.4 22.4 8 3.2 12.8 11.2 12.8 19.2 0 44.8 38.4 83.2 84.8 83.2h148.8c48 0 86.4-38.4 86.4-84.8 0-8 4.8-16 12.8-19.2 12.8-6.4 25.6-14.4 38.4-22.4 8-4.8 16-4.8 24-1.6 19.2 11.2 43.2 14.4 64 8 22.4-6.4 40-20.8 51.2-40l75.2-129.6c24-41.6 9.6-92.8-32-116.8-6.4-4.8-11.2-12.8-11.2-20.8v-44.8c0-8 3.2-16 11.2-20.8 19.2-11.2 33.6-30.4 40-51.2s3.2-44.8-8-65.6l-75.2-126.4c-24-40-75.2-54.4-116.8-32-6.4 4.8-16 3.2-24-1.6-12.8-8-25.6-16-38.4-22.4-8-3.2-12.8-11.2-12.8-19.2 1.6-46.4-36.8-84.8-83.2-84.8zM288 195.2c16 0 33.6-4.8 48-14.4 9.6-6.4 20.8-12.8 32-17.6 28.8-14.4 48-44.8 48-76.8 0-11.2 9.6-20.8 20.8-20.8h148.8c11.2 0 20.8 9.6 20.8 20.8 0 32 17.6 62.4 48 76.8 11.2 4.8 20.8 11.2 32 17.6 27.2 17.6 62.4 19.2 89.6 3.2 9.6-6.4 24-1.6 28.8 8l75.2 129.6c3.2 4.8 3.2 11.2 1.6 16s-4.8 9.6-9.6 12.8c-28.8 16-44.8 46.4-43.2 80v35.2c-1.6 33.6 14.4 64 43.2 80 9.6 6.4 14.4 19.2 8 28.8l-72 129.6c-3.2 4.8-8 8-12.8 9.6s-11.2 0-16-1.6c-28.8-16-62.4-14.4-89.6 3.2-9.6 6.4-20.8 12.8-32 17.6-28.8 14.4-48 44.8-48 76.8-1.6 12.8-11.2 22.4-22.4 22.4h-148.8c-12.8 0-22.4-9.6-22.4-20.8 0-32-17.6-62.4-48-76.8-11.2-4.8-20.8-11.2-32-17.6-27.2-17.6-62.4-19.2-91.2-3.2-9.6 6.4-24 1.6-28.8-8l-73.6-129.6c-6.4-9.6-1.6-24 8-28.8 28.8-16 44.8-46.4 43.2-80v-35.2c1.6-33.6-14.4-64-43.2-80-4.8-3.2-8-8-9.6-12.8s0-11.2 1.6-16l75.2-129.6c6.4-9.6 19.2-14.4 28.8-8 12.8 6.4 27.2 9.6 41.6 9.6z" />
</font>
</defs>
</svg>
